<?xml version="1.0" encoding="UTF-8"?>
<svg version="1.1" xmlns="http://www.w3.org/2000/svg" width="300" height="150">
<path d="M0 0 C4.11664372 2.10032843 5.62728117 4.65716291 7.37136841 8.88088989 C8.59410969 13.00273718 8.44685359 17.19656202 8.43359375 21.46484375 C8.4388356 22.4569838 8.44407745 23.44912384 8.44947815 24.47132874 C8.45587779 26.56152413 8.45458814 28.65175563 8.44604492 30.74194336 C8.43753523 33.92432328 8.46632566 37.10490641 8.49804688 40.28710938 C8.49965922 42.3255203 8.49908073 44.36393438 8.49609375 46.40234375 C8.50732773 47.34528793 8.51856171 48.28823212 8.53013611 49.25975037 C8.45739695 56.22088353 7.0607164 61.87057364 2.0859375 66.95703125 C-2.47269419 69.23634709 -7.08549824 68.88849749 -12 68 C-17.02903559 66.02389392 -21.67973477 63.22325066 -26 60 C-26.33 59.01 -26.66 58.02 -27 57 C-20.81818182 53 -20.81818182 53 -17.5 53 C-15.28870374 53.8845185 -13.5161597 54.88228088 -11.5 56.125 C-7.89980087 58.53109399 -7.89980087 58.53109399 -3 57 C-3 41.82 -3 26.64 -3 11 C-7.92529755 9.8092306 -7.92529755 9.8092306 -11.7578125 11.703125 C-12.45729004 12.10112305 -13.15676758 12.49912109 -13.87744141 12.90917969 C-14.61913574 13.35165039 -15.36083008 13.79412109 -16.125 14.25 C-17.71873586 15.17710764 -19.31248639 16.10419007 -20.90625 17.03125 C-21.73382813 17.51851562 -22.56140625 18.00578125 -23.4140625 18.5078125 C-26.05112417 20.02950065 -28.71971682 21.47394845 -31.40625 22.90625 C-33.14592628 23.85399608 -34.88551212 24.80190818 -36.625 25.75 C-37.46047363 26.18473633 -38.29594727 26.61947266 -39.15673828 27.06738281 C-41.29611191 28.25887568 -43.18274984 29.35868894 -45 31 C-45.94987169 34.14267671 -45.94987169 34.14267671 -45 37 C-44.01 37.66 -43.02 38.32 -42 39 C-42 39.66 -42 40.32 -42 41 C-48.23616236 44.95756458 -48.23616236 44.95756458 -51.25 45.125 C-54.13668096 43.26927653 -54.84050519 41.18861073 -56 38 C-56.57647585 32.81171735 -56.42443944 29.49851543 -53.64379883 24.88012695 C-49.91633878 20.61677186 -44.53877614 18.22845566 -39.625 15.5625 C-38.43654852 14.90498805 -37.24888743 14.24604549 -36.06201172 13.58569336 C-33.74388613 12.29690839 -31.42218933 11.01558441 -29.09765625 9.73828125 C-26.54447325 8.30553669 -24.05989387 6.8254589 -21.59375 5.25 C-14.49265083 0.73233559 -8.52619884 -1.7718507 0 0 Z " fill="#4B00FD" transform="translate(76,41)"/>
<path d="M0 0 C5.03153976 1.96099061 9.68311672 4.77927254 14 8 C14.495 9.485 14.495 9.485 15 11 C8.81818182 15 8.81818182 15 5.5 15 C3.28870374 14.1154815 1.5161597 13.11771912 -0.5 11.875 C-4.10019913 9.46890601 -4.10019913 9.46890601 -9 11 C-9 26.18 -9 41.36 -9 57 C-3.68357012 58.06328598 -3.28372088 58.07085986 1.02734375 55.53515625 C1.97851074 54.98609619 2.92967773 54.43703613 3.90966797 53.87133789 C5.40844482 52.97596313 5.40844482 52.97596313 6.9375 52.0625 C9.00107905 50.85378581 11.0648808 49.64545175 13.12890625 48.4375 C14.13066895 47.84582031 15.13243164 47.25414062 16.16455078 46.64453125 C18.61429266 45.22370627 21.07939288 43.87180801 23.58984375 42.5625 C24.56739624 42.04417603 24.56739624 42.04417603 25.56469727 41.51538086 C27.25389132 40.62624743 28.95089127 39.7519879 30.6484375 38.87890625 C33.30585543 37.13823817 33.30585543 37.13823817 33.8515625 33.77734375 C33.90054688 32.86082031 33.94953125 31.94429687 34 31 C32.68 30.34 31.36 29.68 30 29 C30 28.34 30 27.68 30 27 C36.31989924 22.86775819 36.31989924 22.86775819 39.25 23.4375 C42.8429753 26.64551366 43.90241334 29.12172004 44.4375 33.9375 C44.26004714 38.2205667 42.77335201 40.70195977 40 44 C36.43795937 47.0719794 32.72163875 49.43572793 28.6328125 51.75 C28.03499969 52.08999023 27.43718689 52.42998047 26.82125854 52.78027344 C24.92479988 53.85762198 23.02500521 54.928921 21.125 56 C19.8578442 56.7183467 18.59091507 57.43709338 17.32421875 58.15625 C14.97941218 59.48686635 12.63310329 60.81467893 10.28564453 62.140625 C8.5629381 63.11551965 6.84184455 64.09375465 5.13911438 65.10313416 C-0.70661534 68.5470991 -5.316012 69.10165453 -12 68 C-15.22221127 66.3524165 -17.35864457 64.28271086 -19 61 C-19.11078965 59.30100705 -19.1591682 57.59777164 -19.17700195 55.89526367 C-19.18983719 54.83043259 -19.20267242 53.7656015 -19.21589661 52.66850281 C-19.22328354 51.51332657 -19.23067047 50.35815033 -19.23828125 49.16796875 C-19.246353 47.98407059 -19.25442474 46.80017242 -19.26274109 45.58039856 C-19.27659064 43.07111073 -19.28730888 40.56180399 -19.29516602 38.05249023 C-19.31238264 34.21366716 -19.35626318 30.37570418 -19.40039062 26.53710938 C-19.41051688 24.10156885 -19.41903319 21.66602098 -19.42578125 19.23046875 C-19.44328934 18.0813652 -19.46079742 16.93226166 -19.47883606 15.74833679 C-19.45713712 7.78034332 -19.45713712 7.78034332 -17.16088867 3.8605957 C-11.66366389 -0.87269433 -7.04498852 -1.18992535 0 0 Z " fill="#4B00FD" transform="translate(19,41)"/>
<path d="M0 0 C2.31 0 4.62 0 7 0 C7.33 0.66 7.66 1.32 8 2 C8.99 1.34 9.98 0.68 11 0 C14.88811717 -0.78365152 18.46395024 -0.73475827 22.07421875 0.9921875 C25.74395572 3.71564009 27.48604551 6.38783439 28.625 10.8125 C29.34289381 16.10896102 28.56392598 20.31484029 26 25 C23.01123596 28.85393258 23.01123596 28.85393258 20 30 C15.63276876 30.39513045 11.37120266 30.29184588 7 30 C7 33.63 7 37.26 7 41 C4.69 41 2.38 41 0 41 C0 27.47 0 13.94 0 0 Z M9.25 7.6875 C6.37796266 10.69128217 6.68314115 13.81107675 6.6875 17.8125 C6.76766097 19.87607243 6.8642317 21.93933896 7 24 C13.13427064 24.61133358 13.13427064 24.61133358 18.5 22.125 C21.28671924 18.17714775 21.09623975 15.82514266 20.5078125 11.1328125 C20.13521474 8.82930173 20.13521474 8.82930173 18.1875 6.9375 C14.58914152 5.39534637 12.54070139 5.66820597 9.25 7.6875 Z " fill="#00003B" transform="translate(103,60)"/>
<path d="M0 0 C3.79853672 1.7956719 5.52011124 3.29616315 7.875 6.75 C9 10 9 10 9 18 C2.4 18.33 -4.2 18.66 -11 19 C-9.68 20.32 -8.36 21.64 -7 23 C-3.37350049 23.08916154 -3.37350049 23.08916154 0 22 C0.66 21.01 1.32 20.02 2 19 C3.98 19.33 5.96 19.66 8 20 C8.33 20.99 8.66 21.98 9 23 C6.74435935 26.4252321 4.79883409 28.48994652 1 30 C-4.26713446 30.6842501 -8.68491358 30.63405953 -13.5 28.3125 C-17.87068692 24.26961459 -19.18548096 21.56777147 -19.4375 15.625 C-19.27769272 10.23513614 -18.28941145 7.26734458 -15 3 C-10.71648676 -0.90555619 -5.50129666 -0.78464007 0 0 Z M-12 10 C-12 10.66 -12 11.32 -12 12 C-7.71 12 -3.42 12 1 12 C0.4260261 7.79819816 0.4260261 7.79819816 -3 6 C-7.67590167 6 -8.69649386 6.88002198 -12 10 Z " fill="#01003D" transform="translate(152,60)"/>
<path d="M0 0 C4.10973898 2.05486949 6.34059959 3.73732004 8 8 C8.25432144 11.35704305 8.08876634 14.62687908 8 18 C-1.405 18.495 -1.405 18.495 -11 19 C-9.68 20.32 -8.36 21.64 -7 23 C-3.37350049 23.08916154 -3.37350049 23.08916154 0 22 C0.66 21.01 1.32 20.02 2 19 C3.98 19.33 5.96 19.66 8 20 C7.82227527 23.90994399 7.4321336 25.5678664 4.625 28.375 C-0.3530864 30.60655597 -4.62627903 30.79166425 -10 30 C-14.48530992 27.83743986 -16.94776792 25.53651301 -19 21 C-20.45567859 15.96111257 -19.85715514 11.8166858 -18 7 C-13.40691199 -0.04273495 -8.02792547 -1.03831213 0 0 Z M-12 10 C-12 10.66 -12 11.32 -12 12 C-7.71 12 -3.42 12 1 12 C0.4260261 7.79819816 0.4260261 7.79819816 -3 6 C-7.67590167 6 -8.69649386 6.88002198 -12 10 Z " fill="#00003B" transform="translate(292,60)"/>
<path d="M0 0 C3.52553441 2.92115708 6.90957443 6.27927679 7.42578125 10.984375 C7.62637468 17.9523573 6.2145691 21.30109985 1.625 26.625 C-1.62071717 29.30624462 -5.46073604 29.14847862 -9.4609375 29.08984375 C-13.47028306 28.61698074 -15.58341753 27.26660267 -18.8125 24.8125 C-22.42195447 19.92227136 -22.63830793 14.67666417 -21.8125 8.8125 C-20.50214445 4.84441766 -18.54762423 2.34247328 -15.125 -0.125 C-9.88450044 -1.80591495 -5.12989226 -2.16595451 0 0 Z M-12.8125 6.8125 C-15.16478113 10.60916429 -15.02189735 13.43333307 -14.41796875 17.74609375 C-13.92837355 20.06108241 -13.92837355 20.06108241 -11.5625 21.9375 C-8.39806503 22.94436567 -6.91568084 22.95577715 -3.8125 21.8125 C-1.33318499 20.13010767 -0.85306299 18.93998368 0.0625 16.0625 C0.22535626 11.82823733 -0.61631843 9.42557291 -2.8125 5.8125 C-6.702308 4.40554817 -9.44924023 4.29005518 -12.8125 6.8125 Z " fill="#00003B" transform="translate(219.8125,61.1875)"/>
<path d="M0 0 C5.36119271 4.25741774 5.36119271 4.25741774 6.125 8.6875 C3.99140881 9.98289465 2.64892246 10.72024515 0.125 10.5625 C-1.875 9.6875 -1.875 9.6875 -3.8125 7.5625 C-4.493125 6.94375 -5.17375 6.325 -5.875 5.6875 C-9.26654295 5.84900205 -10.45796757 6.27046757 -12.875 8.6875 C-13.15608663 11.05848906 -13.15608663 11.05848906 -13.0625 13.6875 C-13.05605469 14.574375 -13.04960937 15.46125 -13.04296875 16.375 C-13.02081927 18.71356345 -13.02081927 18.71356345 -11.875 20.6875 C-9.09635764 21.79050354 -9.09635764 21.79050354 -5.875 21.6875 C-4.6684375 20.45 -4.6684375 20.45 -3.4375 19.1875 C-2.591875 18.3625 -1.74625 17.5375 -0.875 16.6875 C2.9375 16.875 2.9375 16.875 6.125 17.6875 C5.71065093 22.52157252 3.74706046 24.58287674 0.125 27.6875 C-5.17952035 29.45567345 -10.65641456 29.6609553 -15.75 27.125 C-19.90977716 23.88037381 -21.4331402 20.90498614 -22.15234375 15.66796875 C-22.43686656 9.71575161 -20.70390778 5.80217462 -16.875 1.375 C-12.24803818 -2.52899903 -5.32187007 -2.42954938 0 0 Z " fill="#01003C" transform="translate(265.875,61.3125)"/>
<path d="M0 0 C1.21236328 0.01353516 1.21236328 0.01353516 2.44921875 0.02734375 C3.37154297 0.04474609 3.37154297 0.04474609 4.3125 0.0625 C4.3125 2.3725 4.3125 4.6825 4.3125 7.0625 C1.6725 7.0625 -0.9675 7.0625 -3.6875 7.0625 C-3.6875 8.7125 -3.6875 10.3625 -3.6875 12.0625 C-2.0375 12.0625 -0.3875 12.0625 1.3125 12.0625 C1.3125 14.3725 1.3125 16.6825 1.3125 19.0625 C-0.0075 19.3925 -1.3275 19.7225 -2.6875 20.0625 C-2.71255615 20.69341553 -2.7376123 21.32433105 -2.76342773 21.97436523 C-2.87904137 24.81646825 -3.00192316 27.65821083 -3.125 30.5 C-3.16431641 31.49322266 -3.20363281 32.48644531 -3.24414062 33.50976562 C-3.28603516 34.45400391 -3.32792969 35.39824219 -3.37109375 36.37109375 C-3.42608032 37.68291626 -3.42608032 37.68291626 -3.48217773 39.02124023 C-3.6875 41.0625 -3.6875 41.0625 -4.6875 42.0625 C-7.6875 42.1875 -7.6875 42.1875 -10.6875 42.0625 C-11.6875 41.0625 -11.6875 41.0625 -11.80102539 39.02124023 C-11.79578857 38.14669189 -11.79055176 37.27214355 -11.78515625 36.37109375 C-11.78032227 34.95473633 -11.78032227 34.95473633 -11.77539062 33.50976562 C-11.76701172 32.51654297 -11.75863281 31.52332031 -11.75 30.5 C-11.74548828 29.50291016 -11.74097656 28.50582031 -11.73632812 27.47851562 C-11.72450007 25.00645151 -11.70801849 22.53450482 -11.6875 20.0625 C-13.0075 19.7325 -14.3275 19.4025 -15.6875 19.0625 C-15.6875 16.7525 -15.6875 14.4425 -15.6875 12.0625 C-14.3675 12.0625 -13.0475 12.0625 -11.6875 12.0625 C-11.584375 10.804375 -11.48125 9.54625 -11.375 8.25 C-11.04422815 5.61314273 -10.86811612 4.31700453 -9.3125 2.125 C-6.2322793 0.11100955 -3.56517829 -0.05166925 0 0 Z " fill="#01003C" transform="translate(196.6875,47.9375)"/>
<path d="M0 0 C5.33333333 0 10.66666667 0 16 0 C16 2.31 16 4.62 16 7 C14.865625 7.268125 13.73125 7.53625 12.5625 7.8125 C11.386875 8.204375 10.21125 8.59625 9 9 C8.11360611 11.65918166 7.82010975 13.48064641 7.68359375 16.23046875 C7.64169922 17.03291016 7.59980469 17.83535156 7.55664062 18.66210938 C7.51732422 19.49548828 7.47800781 20.32886719 7.4375 21.1875 C7.39431641 22.03248047 7.35113281 22.87746094 7.30664062 23.74804688 C7.20068482 25.83184433 7.0998498 27.91590103 7 30 C4.69 30 2.38 30 0 30 C0 20.1 0 10.2 0 0 Z " fill="#00003A" transform="translate(163,60)"/>
<path d="M0 0 C5.33333333 0 10.66666667 0 16 0 C16 2.31 16 4.62 16 7 C13.36 7.33 10.72 7.66 8 8 C7.67 15.26 7.34 22.52 7 30 C4.69 30 2.38 30 0 30 C0 20.1 0 10.2 0 0 Z " fill="#00003B" transform="translate(229,60)"/>
</svg>
